<?xml version="1.0" encoding="UTF-8"?>
<svg id="Layer_1" data-name="Layer 1" xmlns="http://www.w3.org/2000/svg" viewBox="0 0 1080 1080">
  <defs>
    <style>
      .cls-1 {
        fill: #fff;
        stroke: #fff;
        stroke-miterlimit: 10;
        stroke-width: 5px;
      }

      .cls-2 {
        fill: #0d41a7;
      }
    </style>
  </defs>
  <rect class="cls-2" width="1080" height="1080"/>
  <g>
    <path class="cls-1" d="M814.99,681.62c0,1.91-3.13,13.04-6.95,24.68-21.9,66.57-67.44,121.84-127.92,155.21-18.25,10.08-22.25,11.29-23.99,6.77-1.91-5.21-1.04-42.06,1.39-54.92,11.64-59.79,53.53-107.59,111.41-127.4,12.69-4.17,28.34-7.48,37.89-7.65,6.95-.17,8.17,.35,8.17,3.3Z"/>
    <path class="cls-1" d="M820.21,643.56c-1.39,2.61-3.65,3.3-10.43,3.3-21.55,0-54.06,9.39-79.95,22.94-51.28,26.94-85.86,71.61-100.99,130.01-4.35,16.51-6.26,57.36-3.48,71.95,1.05,6.08,1.22,11.13,.35,11.99-5.74,5.74-70.4,14.42-75.43,10.08-1.74-1.39-3.13-9.91-4.7-26.77-1.91-21.38-1.91-27.98,.52-49.01,7.82-67.79,32.85-120.97,79.25-168.07,22.6-22.77,45.02-39.11,72.31-52.49,32.5-16.17,55.97-23.47,90.38-27.98,22.77-2.96,29.2-3.13,31.81-.52,2.61,2.61,2.95,69.53,.34,74.56Z"/>
    <path class="cls-1" d="M820.55,534.24c-.69,.69-10.6,2.08-22.07,3.12-43.45,3.82-81.17,14.77-120.62,35.28-17.03,8.87-19.46,10.26-39.8,25.2-61.01,44.84-102.54,110.37-119.06,188.06-3.48,16.34-3.83,23.12-3.83,63.09l.18,45.02-9.39-1.22c-13.91-1.74-39.45-8.51-55.62-14.77-13.55-5.21-14.25-5.73-15.29-11.82-1.57-8.17,.52-60.84,2.78-74.22,9.39-52.83,18.08-80.65,37.19-118.71,35.46-71.43,91.25-129.31,162.51-168.76,50.92-28.34,118.88-46.59,172.24-46.23h11.3l.52,37.19c.17,20.51-.18,37.89-1.05,38.76Z"/>
    <path class="cls-1" d="M820.38,424.91c-1.04,1.04-9.04,2.08-17.9,2.43-37.89,1.39-76.65,8.69-115.24,21.73-22.07,7.48-64.83,27.11-77.52,35.63-4.17,2.78-9.73,5.91-12.16,7.3-6.78,3.3-33.72,23.64-50.58,38.07-27.64,23.47-65.53,68.48-83.78,99.41-11.13,18.78-30.94,61.7-37.37,80.82-12.86,38.23-20.33,79.08-21.73,119.06-.69,19.29-1.21,21.73-3.99,22.24-7.65,1.04-61.53-47.1-70.57-63.09-2.61-4.86,1.22-29.2,11.3-68.65,41.02-161.81,164.59-293.91,324.67-347.09,45.36-14.95,100.29-24.68,137.31-24.16l18.25,.18,.52,37.19c.17,22.77-.18,37.89-1.22,38.94Z"/>
    <path class="cls-1" d="M821.08,280.48v35.28l-11.3,.34c-24.68,.87-62.39,5.21-89.51,10.43-136.79,26.24-259.32,108.11-338.23,225.78-33.2,49.54-61.18,113.67-73.69,168.94-2.26,9.91-4.52,18.42-5.04,18.95-2.95,2.95-6.78-4.52-15.82-31.63-10.43-30.76-14.77-59.79-14.77-98.2v-25.38l7.99-15.64c11.82-22.6,32.51-57.19,42.76-71.09,15.82-21.55,23.12-31.28,23.99-32.15,.52-.52,5.21-5.91,10.43-12.17,49.7-59.1,112.8-110.02,179.89-145.3,41.54-21.73,87.08-39.63,132.96-52.15,18.25-4.86,58.75-11.99,81.69-14.42,10.08-1.05,20.68-2.26,23.46-2.61,2.96-.18,12.34-.7,21.03-.87,13.39-.18,16.68,.34,19.99,3.12,4.17,3.3,4.17,3.65,4.17,38.76Z"/>
    <path class="cls-1" d="M613.38,240.15c0,1.05-1.39,2.26-2.96,2.79-11.82,3.48-51.79,20.33-69.17,29.02-63.09,31.29-108.8,63.61-165.81,116.79-22.6,21.21-63.09,70.22-83.43,100.99-14.42,22.07-15.46,23.29-17.55,23.29-1.04,0-1.74-24.51-1.74-64.48v-64.66l8.35-9.73c4.52-5.39,19.99-21.55,34.24-35.98,33.89-33.89,67.61-61.87,108.46-89.68l14.77-10.08h87.43c58.92,0,87.43,.52,87.43,1.74Z"/>
    <path class="cls-1" d="M363.44,254.24c-21.38,16.33-39.28,31.98-65.7,57.52-11.64,11.3-21.9,20.51-23.12,20.51-1.56,0-1.91-10.6-1.56-43.63,.52-43.45,.52-43.63,4.69-46.93,3.82-3.12,7.3-3.3,52.49-3.3,26.59,0,48.67,.7,49.19,1.39,.52,.87-6.77,7.3-15.99,14.43Z"/>
  </g>
</svg>